<?xml version="1.0" encoding="UTF-8"?>
<!DOCTYPE svg PUBLIC "-//W3C//DTD SVG 1.1//EN" "http://www.w3.org/Graphics/SVG/1.1/DTD/svg11.dtd">
<svg xmlns="http://www.w3.org/2000/svg" version="1.1" width="1000px" height="1000px" style="shape-rendering:geometricPrecision; text-rendering:geometricPrecision; image-rendering:optimizeQuality; fill-rule:evenodd; clip-rule:evenodd" xmlns:xlink="http://www.w3.org/1999/xlink">
<g><path style="opacity:0.955" fill="#fefefe" d="M 454.5,547.5 C 451.833,550.167 449.167,552.833 446.5,555.5C 440.456,559.465 434.123,562.965 427.5,566C 428.997,568.207 430.997,568.874 433.5,568C 438.473,565.511 443.14,562.511 447.5,559C 449.677,557.798 452.011,557.298 454.5,557.5C 454.666,564.508 454.5,571.508 454,578.5C 453.5,579 453,579.5 452.5,580C 417.5,580.667 382.5,580.667 347.5,580C 347,579.5 346.5,579 346,578.5C 345.333,567.5 345.333,556.5 346,545.5C 368.721,507.218 391.554,469.051 414.5,431C 396.993,430.333 379.493,430.5 362,431.5C 357.099,431.537 352.266,431.037 347.5,430C 345.961,424.662 345.294,419.162 345.5,413.5C 345.419,408.418 345.919,403.418 347,398.5C 347.5,398 348,397.5 348.5,397C 383.167,396.333 417.833,396.333 452.5,397C 453,397.5 453.5,398 454,398.5C 454.667,409.833 454.667,421.167 454,432.5C 431.035,470.107 408.868,508.107 387.5,546.5C 409.908,546.178 432.242,546.511 454.5,547.5 Z"/></g>
<g><path style="opacity:0.97" fill="#fefefe" d="M 552.5,421.5 C 549.805,424.526 547.138,427.526 544.5,430.5C 529.833,430.5 515.167,430.5 500.5,430.5C 500.5,438.167 500.5,445.833 500.5,453.5C 499.167,452.5 497.833,451.5 496.5,450.5C 495.266,447.593 493.266,445.259 490.5,443.5C 488.857,448.02 487.857,452.687 487.5,457.5C 485.256,462.171 484.423,467.171 485,472.5C 486.626,478.297 488.626,483.963 491,489.5C 493.542,492.617 496.542,495.283 500,497.5C 500.33,500.866 499.997,504.199 499,507.5C 490.957,521.044 480.123,531.71 466.5,539.5C 466.5,536.833 466.5,534.167 466.5,531.5C 467.817,527.941 468.817,524.275 469.5,520.5C 468.002,515.209 467.002,509.543 466.5,503.5C 466.171,467.927 466.504,432.427 467.5,397C 494.833,396.333 522.167,396.333 549.5,397C 550,397.5 550.5,398 551,398.5C 551.171,406.344 551.671,414.011 552.5,421.5 Z"/></g>
<g><path style="opacity:0.953" fill="#fefefe" d="M 562.5,492.5 C 564.835,489.835 567.835,488.502 571.5,488.5C 571.5,487.5 571.5,486.5 571.5,485.5C 568.402,485.244 565.402,484.578 562.5,483.5C 562.5,469.5 562.5,455.5 562.5,441.5C 563.265,438.904 563.599,436.237 563.5,433.5C 565.332,425.503 566.832,417.503 568,409.5C 565.672,410.664 563.838,412.33 562.5,414.5C 559.816,416.193 557.149,417.86 554.5,419.5C 556.64,416.835 559.14,414.502 562,412.5C 562.333,407.833 562.667,403.167 563,398.5C 563.5,398 564,397.5 564.5,397C 575.214,396.19 585.88,396.357 596.5,397.5C 607.951,425.681 619.118,454.014 630,482.5C 630.333,454.833 630.667,427.167 631,399.5C 631.833,398.667 632.667,397.833 633.5,397C 643.5,396.333 653.5,396.333 663.5,397C 664.333,397.833 665.167,398.667 666,399.5C 666.667,458.833 666.667,518.167 666,577.5C 665.167,578.333 664.333,579.167 663.5,580C 652.453,580.811 641.453,580.644 630.5,579.5C 619.562,552.516 608.729,525.516 598,498.5C 597.667,524.833 597.333,551.167 597,577.5C 596.5,578.667 595.667,579.5 594.5,580C 584.5,580.667 574.5,580.667 564.5,580C 564,579.5 563.5,579 563,578.5C 562.5,549.835 562.333,521.169 562.5,492.5 Z"/></g>
<g><path style="opacity:1" fill="#c6e7e6" d="M 560.5,425.5 C 559.827,433.892 556.494,440.892 550.5,446.5C 553.597,439.309 556.93,432.309 560.5,425.5 Z"/></g>
<g><path style="opacity:1" fill="#7cb0b5" d="M 563.5,433.5 C 559.667,442.499 554.334,450.499 547.5,457.5C 546.833,457.5 546.167,457.5 545.5,457.5C 545.586,456.504 545.252,455.671 544.5,455C 546.71,452.266 548.71,449.433 550.5,446.5C 556.494,440.892 559.827,433.892 560.5,425.5C 562.402,423.109 564.069,420.609 565.5,418C 565.285,416.092 564.285,414.926 562.5,414.5C 563.838,412.33 565.672,410.664 568,409.5C 566.832,417.503 565.332,425.503 563.5,433.5 Z"/></g>
<g><path style="opacity:1" fill="#538c89" d="M 562.5,414.5 C 564.285,414.926 565.285,416.092 565.5,418C 564.069,420.609 562.402,423.109 560.5,425.5C 556.93,432.309 553.597,439.309 550.5,446.5C 548.71,449.433 546.71,452.266 544.5,455C 545.252,455.671 545.586,456.504 545.5,457.5C 542.661,459.486 539.994,461.82 537.5,464.5C 536.391,464.557 535.391,464.89 534.5,465.5C 533.833,464.833 533.167,464.167 532.5,463.5C 535.232,455.687 537.398,447.687 539,439.5C 540.844,436.472 542.678,433.472 544.5,430.5C 547.138,427.526 549.805,424.526 552.5,421.5C 552.833,420.5 553.5,419.833 554.5,419.5C 557.149,417.86 559.816,416.193 562.5,414.5 Z"/></g>
<g><path style="opacity:0.999" fill="#c8deda" d="M 563.5,433.5 C 563.599,436.237 563.265,438.904 562.5,441.5C 560.214,444.463 558.381,447.796 557,451.5C 554.703,454.98 551.536,456.98 547.5,457.5C 554.334,450.499 559.667,442.499 563.5,433.5 Z"/></g>
<g><path style="opacity:0.999" fill="#83aba0" d="M 496.5,450.5 C 497.833,451.5 499.167,452.5 500.5,453.5C 503.255,456.917 505.588,460.583 507.5,464.5C 509.038,468.697 510.038,473.363 510.5,478.5C 510.684,481.205 510.017,483.538 508.5,485.5C 508.723,483.658 509.057,481.825 509.5,480C 507.301,477.302 505.301,474.468 503.5,471.5C 503.597,465.448 501.264,460.614 496.5,457C 496.986,454.973 496.986,452.807 496.5,450.5 Z"/></g>
<g><path style="opacity:1" fill="#608d83" d="M 496.5,450.5 C 496.986,452.807 496.986,454.973 496.5,457C 501.264,460.614 503.597,465.448 503.5,471.5C 500.232,470.437 497.399,470.437 495,471.5C 493.745,467.959 493.578,464.459 494.5,461C 491.588,458.327 491.921,456.16 495.5,454.5C 495.167,454.167 494.833,453.833 494.5,453.5C 493.268,454.145 491.935,454.311 490.5,454C 490.026,455.729 489.026,456.895 487.5,457.5C 487.857,452.687 488.857,448.02 490.5,443.5C 493.266,445.259 495.266,447.593 496.5,450.5 Z"/></g>
<g><path style="opacity:0.973" fill="#fefefe" d="M 507.5,464.5 C 515.5,464.5 523.5,464.5 531.5,464.5C 525.229,475.433 518.562,486.099 511.5,496.5C 511.167,497.5 510.5,498.167 509.5,498.5C 507.833,498.5 506.167,498.5 504.5,498.5C 507.082,494.623 508.416,490.29 508.5,485.5C 510.017,483.538 510.684,481.205 510.5,478.5C 510.038,473.363 509.038,468.697 507.5,464.5 Z"/></g>
<g><path style="opacity:0.947" fill="#fdfdfd" d="M 537.5,464.5 C 538.833,464.5 540.167,464.5 541.5,464.5C 541.5,470.167 541.5,475.833 541.5,481.5C 535.936,482.771 530.603,484.938 525.5,488C 524.29,489.039 523.29,490.206 522.5,491.5C 521.833,491.5 521.167,491.5 520.5,491.5C 519.903,491.265 519.57,490.765 519.5,490C 524.375,481.748 529.375,473.581 534.5,465.5C 535.391,464.89 536.391,464.557 537.5,464.5 Z"/></g>
<g><path style="opacity:1" fill="#4a7d73" d="M 503.5,471.5 C 505.301,474.468 507.301,477.302 509.5,480C 509.057,481.825 508.723,483.658 508.5,485.5C 508.416,490.29 507.082,494.623 504.5,498.5C 504.185,500.226 504.019,501.893 504,503.5C 505.73,501.598 507.563,499.931 509.5,498.5C 510.5,498.167 511.167,497.5 511.5,496.5C 513.606,495.217 515.94,494.384 518.5,494C 519.381,493.292 520.047,492.458 520.5,491.5C 521.167,491.5 521.833,491.5 522.5,491.5C 535.69,487.662 549.024,484.995 562.5,483.5C 565.402,484.578 568.402,485.244 571.5,485.5C 571.5,486.5 571.5,487.5 571.5,488.5C 567.835,488.502 564.835,489.835 562.5,492.5C 557.193,496.304 551.36,498.971 545,500.5C 543.634,500.294 542.301,499.96 541,499.5C 539.532,500.628 537.865,501.294 536,501.5C 529.246,499.734 522.413,498.901 515.5,499C 509.242,503.422 504.242,508.922 500.5,515.5C 498.198,519.468 495.198,522.802 491.5,525.5C 493.766,526.206 496.099,526.039 498.5,525C 500.32,524.8 501.653,523.966 502.5,522.5C 503.52,521.046 504.687,520.713 506,521.5C 509.55,520.408 513.217,519.741 517,519.5C 525.155,520.497 532.988,522.664 540.5,526C 546.63,529.815 552.963,533.148 559.5,536C 554.971,537.482 550.304,538.648 545.5,539.5C 547.141,537.742 549.141,536.242 551.5,535C 549.433,533.016 546.933,531.849 544,531.5C 541.453,533.177 538.62,533.844 535.5,533.5C 534.875,531.103 534.208,529.103 533.5,527.5C 532.5,528.167 531.5,528.833 530.5,529.5C 528.298,528.22 526.132,528.22 524,529.5C 521.331,527.291 518.498,527.291 515.5,529.5C 518.515,532.728 521.681,533.062 525,530.5C 527.574,532.002 530.407,533.002 533.5,533.5C 534.246,534.736 534.579,536.07 534.5,537.5C 536.199,537.34 537.866,537.506 539.5,538C 536.492,538.518 534.159,540.018 532.5,542.5C 531.808,541.975 531.308,541.308 531,540.5C 528.03,542.51 524.863,542.51 521.5,540.5C 519.851,539.294 518.351,537.961 517,536.5C 516,537.167 515,537.833 514,538.5C 511.409,536.309 508.575,535.642 505.5,536.5C 500.668,532.254 495.001,529.921 488.5,529.5C 483.148,532.338 478.482,536.171 474.5,541C 471.379,542.306 468.713,544.14 466.5,546.5C 464.004,547.58 461.67,548.914 459.5,550.5C 456.222,549.625 453.555,550.791 451.5,554C 449.975,555.009 448.308,555.509 446.5,555.5C 449.167,552.833 451.833,550.167 454.5,547.5C 455.931,547.119 456.764,546.119 457,544.5C 457.878,541.356 458.045,538.356 457.5,535.5C 458.552,535.351 459.552,535.517 460.5,536C 461.099,537.622 461.766,539.122 462.5,540.5C 462.369,541.239 462.536,541.906 463,542.5C 464.518,541.837 465.685,540.837 466.5,539.5C 480.123,531.71 490.957,521.044 499,507.5C 499.997,504.199 500.33,500.866 500,497.5C 496.542,495.283 493.542,492.617 491,489.5C 488.626,483.963 486.626,478.297 485,472.5C 484.423,467.171 485.256,462.171 487.5,457.5C 489.026,456.895 490.026,455.729 490.5,454C 491.935,454.311 493.268,454.145 494.5,453.5C 494.833,453.833 495.167,454.167 495.5,454.5C 491.921,456.16 491.588,458.327 494.5,461C 493.578,464.459 493.745,467.959 495,471.5C 497.399,470.437 500.232,470.437 503.5,471.5 Z M 504.5,498.5 C 506.167,498.5 507.833,498.5 509.5,498.5C 507.563,499.931 505.73,501.598 504,503.5C 504.019,501.893 504.185,500.226 504.5,498.5 Z"/></g>
<g><path style="opacity:1" fill="#79a096" d="M 532.5,463.5 C 533.167,464.167 533.833,464.833 534.5,465.5C 529.375,473.581 524.375,481.748 519.5,490C 519.57,490.765 519.903,491.265 520.5,491.5C 520.047,492.458 519.381,493.292 518.5,494C 515.94,494.384 513.606,495.217 511.5,496.5C 518.562,486.099 525.229,475.433 531.5,464.5C 532.167,464.5 532.5,464.167 532.5,463.5 Z"/></g>
<g><path style="opacity:1" fill="#70a098" d="M 463.5,536.5 C 462.766,537.708 462.433,539.041 462.5,540.5C 461.766,539.122 461.099,537.622 460.5,536C 459.552,535.517 458.552,535.351 457.5,535.5C 452.291,531.802 447.458,527.469 443,522.5C 440.776,517.4 438.61,512.4 436.5,507.5C 436.328,501.055 436.995,494.722 438.5,488.5C 439.163,486.958 439.83,485.291 440.5,483.5C 441.149,485.624 441.983,487.624 443,489.5C 443.249,488.376 443.749,487.376 444.5,486.5C 447.062,489.26 448.396,492.26 448.5,495.5C 450.078,496.298 451.744,496.798 453.5,497C 452.764,500.199 453.597,500.365 456,497.5C 456.236,499.3 455.736,500.966 454.5,502.5C 453.784,501.689 452.95,501.022 452,500.5C 450.85,501.424 449.85,501.424 449,500.5C 448.744,503.557 448.244,506.557 447.5,509.5C 447.923,512.603 448.923,515.436 450.5,518C 450.167,518.333 449.833,518.667 449.5,519C 451.833,520 453.5,521.667 454.5,524C 453.833,524.333 453.167,524.667 452.5,525C 454.616,526.171 455.282,527.671 454.5,529.5C 455.376,530.251 456.376,530.751 457.5,531C 456.304,531.654 456.304,532.154 457.5,532.5C 458.891,531.355 460.224,531.355 461.5,532.5C 461.994,534.026 462.661,535.359 463.5,536.5 Z"/></g>
<g><path style="opacity:1" fill="#84afa5" d="M 541.5,481.5 C 548.615,481.174 555.615,481.841 562.5,483.5C 549.024,484.995 535.69,487.662 522.5,491.5C 523.29,490.206 524.29,489.039 525.5,488C 530.603,484.938 535.936,482.771 541.5,481.5 Z"/></g>
<g><path style="opacity:1" fill="#8db9b2" d="M 466.5,503.5 C 467.002,509.543 468.002,515.209 469.5,520.5C 468.817,524.275 467.817,527.941 466.5,531.5C 465.36,533.045 464.36,534.712 463.5,536.5C 462.661,535.359 461.994,534.026 461.5,532.5C 460.224,531.355 458.891,531.355 457.5,532.5C 456.304,532.154 456.304,531.654 457.5,531C 456.376,530.751 455.376,530.251 454.5,529.5C 455.282,527.671 454.616,526.171 452.5,525C 453.167,524.667 453.833,524.333 454.5,524C 453.5,521.667 451.833,520 449.5,519C 449.833,518.667 450.167,518.333 450.5,518C 448.923,515.436 447.923,512.603 447.5,509.5C 448.244,506.557 448.744,503.557 449,500.5C 449.85,501.424 450.85,501.424 452,500.5C 452.95,501.022 453.784,501.689 454.5,502.5C 455.736,500.966 456.236,499.3 456,497.5C 453.597,500.365 452.764,500.199 453.5,497C 451.744,496.798 450.078,496.298 448.5,495.5C 448.396,492.26 447.062,489.26 444.5,486.5C 443.749,487.376 443.249,488.376 443,489.5C 441.983,487.624 441.149,485.624 440.5,483.5C 439.83,485.291 439.163,486.958 438.5,488.5C 438.62,486.266 438.287,484.099 437.5,482C 437.763,480.054 438.763,479.388 440.5,480C 449.661,487.329 458.327,495.163 466.5,503.5 Z"/></g>
<g><path style="opacity:0.02" fill="#323332" d="M 436.5,507.5 C 435.833,508.167 435.833,508.167 436.5,507.5 Z"/></g>
<g><path style="opacity:1" fill="#e6f0f1" d="M 500.5,515.5 C 499.99,518.388 500.656,520.721 502.5,522.5C 501.653,523.966 500.32,524.8 498.5,525C 496.099,526.039 493.766,526.206 491.5,525.5C 495.198,522.802 498.198,519.468 500.5,515.5 Z"/></g>
<g><path style="opacity:0.963" fill="#fefefe" d="M 488.5,529.5 C 493.023,531.352 497.023,534.018 500.5,537.5C 500.223,540.448 500.556,543.281 501.5,546C 518.236,545.855 534.736,546.688 551,548.5C 551.667,558.5 551.667,568.5 551,578.5C 550.5,579 550,579.5 549.5,580C 537.171,580.5 524.838,580.667 512.5,580.5C 512.167,580.5 511.833,580.5 511.5,580.5C 506.351,571.852 499.351,565.019 490.5,560C 483.142,556.361 475.476,554.861 467.5,555.5C 467.167,555.5 466.833,555.5 466.5,555.5C 466.5,552.5 466.5,549.5 466.5,546.5C 468.713,544.14 471.379,542.306 474.5,541C 478.482,536.171 483.148,532.338 488.5,529.5 Z"/></g>
<g><path style="opacity:0.999" fill="#a8d5d1" d="M 488.5,529.5 C 495.001,529.921 500.668,532.254 505.5,536.5C 511.285,539.727 517.285,542.394 523.5,544.5C 519.818,544.665 516.152,544.499 512.5,544C 508.633,541.567 504.633,539.4 500.5,537.5C 497.023,534.018 493.023,531.352 488.5,529.5 Z"/></g>
<g><path style="opacity:0.999" fill="#5d8e86" d="M 545.5,539.5 C 541.519,541.781 537.186,543.448 532.5,544.5C 529.617,544.128 526.617,544.128 523.5,544.5C 517.285,542.394 511.285,539.727 505.5,536.5C 508.575,535.642 511.409,536.309 514,538.5C 515,537.833 516,537.167 517,536.5C 518.351,537.961 519.851,539.294 521.5,540.5C 524.863,542.51 528.03,542.51 531,540.5C 531.308,541.308 531.808,541.975 532.5,542.5C 534.159,540.018 536.492,538.518 539.5,538C 537.866,537.506 536.199,537.34 534.5,537.5C 534.579,536.07 534.246,534.736 533.5,533.5C 530.407,533.002 527.574,532.002 525,530.5C 521.681,533.062 518.515,532.728 515.5,529.5C 518.498,527.291 521.331,527.291 524,529.5C 526.132,528.22 528.298,528.22 530.5,529.5C 531.5,528.833 532.5,528.167 533.5,527.5C 534.208,529.103 534.875,531.103 535.5,533.5C 538.62,533.844 541.453,533.177 544,531.5C 546.933,531.849 549.433,533.016 551.5,535C 549.141,536.242 547.141,537.742 545.5,539.5 Z"/></g>
<g><path style="opacity:0.137" fill="#656674" d="M 547.5,540.5 C 548.833,541.167 548.833,541.167 547.5,540.5 Z"/></g>
<g><path style="opacity:0.997" fill="#5f948f" d="M 459.5,550.5 C 457.588,552.657 455.921,554.991 454.5,557.5C 452.011,557.298 449.677,557.798 447.5,559C 443.14,562.511 438.473,565.511 433.5,568C 430.997,568.874 428.997,568.207 427.5,566C 434.123,562.965 440.456,559.465 446.5,555.5C 448.308,555.509 449.975,555.009 451.5,554C 453.555,550.791 456.222,549.625 459.5,550.5 Z"/></g>
<g><path style="opacity:1" fill="#89b8b3" d="M 511.5,580.5 C 507.694,581.295 503.694,581.295 499.5,580.5C 498.522,580.977 497.689,581.643 497,582.5C 496.5,581.5 496,580.5 495.5,579.5C 497.87,576.948 499.203,573.948 499.5,570.5C 497.857,570.52 496.524,569.853 495.5,568.5C 494.522,568.977 493.689,569.643 493,570.5C 491.667,569.167 490.333,567.833 489,566.5C 486.516,566.76 484.349,568.093 482.5,570.5C 481.572,568.665 480.406,568.332 479,569.5C 478.308,568.975 477.808,568.308 477.5,567.5C 477.514,565.16 477.514,562.826 477.5,560.5C 474.546,557.862 471.212,556.195 467.5,555.5C 475.476,554.861 483.142,556.361 490.5,560C 499.351,565.019 506.351,571.852 511.5,580.5 Z"/></g>
<g><path style="opacity:1" fill="#77a6a1" d="M 466.5,555.5 C 466.833,555.5 467.167,555.5 467.5,555.5C 471.212,556.195 474.546,557.862 477.5,560.5C 477.514,562.826 477.514,565.16 477.5,567.5C 477.808,568.308 478.308,568.975 479,569.5C 480.406,568.332 481.572,568.665 482.5,570.5C 484.349,568.093 486.516,566.76 489,566.5C 490.333,567.833 491.667,569.167 493,570.5C 493.689,569.643 494.522,568.977 495.5,568.5C 496.524,569.853 497.857,570.52 499.5,570.5C 499.203,573.948 497.87,576.948 495.5,579.5C 496,580.5 496.5,581.5 497,582.5C 497.689,581.643 498.522,580.977 499.5,580.5C 503.694,581.295 507.694,581.295 511.5,580.5C 511.833,580.5 512.167,580.5 512.5,580.5C 515.507,584.192 518.174,588.192 520.5,592.5C 519.311,593.429 517.978,593.762 516.5,593.5C 514.606,592.952 512.94,591.952 511.5,590.5C 509.776,591.661 508.11,591.495 506.5,590C 501.5,589.667 496.5,589.333 491.5,589C 488.796,587.154 485.796,585.987 482.5,585.5C 481.893,585.624 481.56,585.957 481.5,586.5C 478.411,584.075 475.078,582.075 471.5,580.5C 470.066,577.953 468.4,575.619 466.5,573.5C 464.795,566.429 461.795,560.096 457.5,554.5C 460.57,554.368 463.57,554.701 466.5,555.5 Z"/></g>
<g><path style="opacity:0.654" fill="#fdfdfd" d="M 466.5,573.5 C 468.4,575.619 470.066,577.953 471.5,580.5C 469.856,580.714 468.356,580.38 467,579.5C 466.505,577.527 466.338,575.527 466.5,573.5 Z"/></g>
<g><path style="opacity:0.999" fill="#cce3e2" d="M 481.5,586.5 C 481.56,585.957 481.893,585.624 482.5,585.5C 485.796,585.987 488.796,587.154 491.5,589C 496.5,589.333 501.5,589.667 506.5,590C 508.11,591.495 509.776,591.661 511.5,590.5C 512.94,591.952 514.606,592.952 516.5,593.5C 504.467,593.867 492.8,591.534 481.5,586.5 Z"/></g>
</svg>
